/vscmnt/brussel_pixiu_data/_data_brussel/112/vsc11236/PredSimResults/SUBJ09mtu3D/weighted-LRposFixed/expIG/worker_05.mot
version=1
nRows=4
nColumns=50
inDegrees=yes
endheader
                time	         pelvis_tilt	         pelvis_list	     pelvis_rotation	           pelvis_tx	           pelvis_ty	           pelvis_tz	       hip_flexion_r	     hip_adduction_r	      hip_rotation_r	        knee_angle_r	       ankle_angle_r	         mtp_angle_r	       hip_flexion_l	     hip_adduction_l	      hip_rotation_l	        knee_angle_l	       ankle_angle_l	         mtp_angle_l	    lumbar_extension	      lumbar_bending	     lumbar_rotation	 ercspn_r/activation	 intobl_r/activation	 extobl_r/activation	    abd_r/activation	    add_r/activation	hamstrings_r/activation	bifemsh_r/activation	glut_max_r/activation	iliopsoas_r/activation	rect_fem_r/activation	  vasti_r/activation	gastroc_r/activation	 soleus_r/activation	tib_ant_r/activation	 ercspn_l/activation	 intobl_l/activation	 extobl_l/activation	    abd_l/activation	    add_l/activation	hamstrings_l/activation	bifemsh_l/activation	glut_max_l/activation	iliopsoas_l/activation	rect_fem_l/activation	  vasti_l/activation	gastroc_l/activation	 soleus_l/activation	tib_ant_l/activation	
          1.32844482	         -7.97165116	         -4.75286312	          8.21855537	          1.46128931	          0.98280128	         -0.01457448	         31.23044709	          1.26100784	         -5.44133292	         -2.12413989	          6.42794381	          0.21652331	         -9.46411625	         -4.82020269	          6.73841080	         -6.41786776	         11.36802091	         26.47298057	          0.08269132	          2.84888864	         -3.40757489	          0.08551430	          0.13044091	          0.03320191	          0.01221406	          0.08390033	          0.10971251	          0.19550058	          0.00999999	          0.10594103	          0.00999999	          0.00999999	          0.01138247	          0.00999999	          0.26643396	          0.03404116	          0.00999999	          0.00999999	          0.06081295	          0.02010235	          0.02515181	          0.14253466	          0.06139185	          0.49583972	          0.00999999	          0.00999999	          0.35663150	          0.29597871	          0.01491835	
          1.34172927	         -8.08092485	         -4.65801725	          8.22082703	          1.47923010	          0.98043038	         -0.01416060	         31.45157593	          1.34748464	         -5.31292157	         -3.96307285	          5.98444137	          0.21471454	         -9.79660485	         -4.75911644	          6.32762931	         -7.58063483	         10.80639911	         28.38377539	          0.39158522	          3.14426365	         -3.48917073	          0.07001292	          0.10679557	          0.02718332	          0.00999999	          0.13712624	          0.09549171	          0.16006172	          0.07513758	          0.08673684	          0.00999999	          0.00999999	          0.02250203	          0.01491835	          0.27866736	          0.07922473	          0.00999999	          0.00999999	          0.04978924	          0.05338637	          0.02059248	          0.11669706	          0.05026320	          0.51109940	          0.00999999	          0.00999999	          0.33186528	          0.27987816	          0.01221406	
          1.35501372	         -8.16918412	         -4.55397288	          8.17088019	          1.49763880	          0.97833679	         -0.01368557	         31.45259876	          1.41382382	         -5.15273659	         -5.65877256	          5.49669442	          0.19997878	         -9.99157820	         -4.67172863	          5.89227798	         -9.07792653	         10.09434124	         30.37976508	          0.72558237	          3.44153032	         -3.54063799	          0.06156299	          0.08743648	          0.02225573	          0.06532663	          0.12498109	          0.08754432	          0.13104695	          0.11611840	          0.07101385	          0.00999999	          0.00999999	          0.01842304	          0.01221407	          0.32999633	          0.07771057	          0.00999999	          0.00999999	          0.04076383	          0.04803335	          0.02372057	          0.09554310	          0.04115187	          0.49972699	          0.00999999	          0.00999999	          0.30384036	          0.26021469	          0.00999999	
          1.36829817	         -8.23952154	         -4.43743425	          8.07041652	          1.51618705	          0.97678908	         -0.01311657	         31.25825013	          1.48536905	         -5.02649685	         -7.02241999	          4.86207336	          0.17494533	         -9.94390733	         -4.55017388	          5.44635090	        -11.03891548	          9.16443431	         32.46154081	          1.05111703	          3.73352475	         -3.55808527	          0.07053429	          0.07158666	          0.01822138	          0.11955558	          0.13913370	          0.07668886	          0.10729175	          0.16463763	          0.05814100	          0.00999999	          0.00999999	          0.01508345	          0.00999999	          0.36269170	          0.10328053	          0.00999999	          0.00999999	          0.03337447	          0.05390552	          0.02149928	          0.07822377	          0.03369217	          0.48027970	          0.00999999	          0.01221406	          0.25425314	          0.21895011	          0.00999999	
